<svg width="24" height="24" viewBox="0 0 24 24" fill="none" xmlns="http://www.w3.org/2000/svg">
<path fill-rule="evenodd" clip-rule="evenodd" d="M9.6 19.2C4.29807 19.2 0 14.9019 0 9.6C0 4.29807 4.29807 0 9.6 0C14.9019 0 19.2 4.29807 19.2 9.6C19.2 11.8185 18.4475 13.8612 17.1838 15.4868L23.6485 21.9515L21.9515 23.6485L15.4868 17.1838C13.8612 18.4475 11.8185 19.2 9.6 19.2ZM16.8 9.6C16.8 13.5764 13.5764 16.8 9.6 16.8C5.62355 16.8 2.4 13.5764 2.4 9.6C2.4 5.62355 5.62355 2.4 9.6 2.4C13.5764 2.4 16.8 5.62355 16.8 9.6Z" fill="#6C757D"/>
</svg>
