<svg width="36" height="36" viewBox="0 0 36 36" fill="none" xmlns="http://www.w3.org/2000/svg">
<g clip-path="url(#clip0)">
<path fill-rule="evenodd" clip-rule="evenodd" d="M31.4612 28.6604C33.6202 27.095 35 24.7816 35 22.2089C35 17.4971 30.4142 13.6763 24.7589 13.6763C19.1036 13.6763 14.5178 17.4971 14.5178 22.2089C14.5178 26.9222 19.1036 30.7429 24.7589 30.7429C25.9277 30.7429 27.0553 30.5772 28.1022 30.2754L28.4026 30.2301C28.5995 30.2301 28.778 30.291 28.9466 30.3873L31.1892 31.6822L31.3861 31.7459C31.5745 31.7459 31.7275 31.5929 31.7275 31.4045L31.6722 31.1552L31.2104 29.4339L31.175 29.2157C31.175 28.9862 31.2883 28.7837 31.4612 28.6604V28.6604ZM13.2896 4.25408C6.50233 4.25408 1 8.83842 1 14.4952C1 17.5807 2.65467 20.3587 5.24575 22.2358C5.454 22.3832 5.59 22.6268 5.59 22.9031L5.5475 23.1637L4.99358 25.2292L4.927 25.5282C4.927 25.7548 5.11117 25.939 5.33642 25.939L5.57442 25.8625L8.26467 24.3084C8.46583 24.1922 8.67975 24.12 8.91633 24.12L9.27758 24.1738C10.5327 24.5351 11.8871 24.7362 13.2896 24.7362L13.9639 24.7192C13.6976 23.9202 13.5517 23.0787 13.5517 22.2103C13.5517 17.0522 18.5695 12.8702 24.7589 12.8702L25.4262 12.8872C24.5011 7.9955 19.4195 4.25408 13.2896 4.25408V4.25408ZM21.3447 20.8447C20.5911 20.8447 19.9805 20.2327 19.9805 19.479C19.9805 18.7239 20.5911 18.1133 21.3447 18.1133C22.0998 18.1133 22.7104 18.7239 22.7104 19.479C22.7104 20.2327 22.0998 20.8447 21.3447 20.8447ZM28.1731 20.8447C27.418 20.8447 26.8074 20.2327 26.8074 19.479C26.8074 18.7239 27.418 18.1133 28.1731 18.1133C28.9267 18.1133 29.5373 18.7239 29.5373 19.479C29.5373 20.2327 28.9267 20.8447 28.1731 20.8447ZM9.19258 12.8561C8.28733 12.8561 7.55492 12.1222 7.55492 11.2184C7.55492 10.3132 8.28733 9.57933 9.19258 9.57933C10.0978 9.57933 10.8317 10.3132 10.8317 11.2184C10.8317 12.1222 10.0978 12.8561 9.19258 12.8561ZM17.3852 12.8561C16.4799 12.8561 15.7475 12.1222 15.7475 11.2184C15.7475 10.3132 16.4799 9.57933 17.3852 9.57933C18.2904 9.57933 19.0242 10.3132 19.0242 11.2184C19.0242 12.1222 18.2904 12.8561 17.3852 12.8561Z" fill="#DD5900"/>
</g>
<defs>
<clipPath id="clip0">
<rect width="34" height="34" fill="white" transform="translate(1 1)"/>
</clipPath>
</defs>
</svg>
