<svg width="36" height="36" viewBox="0 0 36 36" fill="none" xmlns="http://www.w3.org/2000/svg">
<g clip-path="url(#clip0)">
<path d="M18.2881 31.5424C14.1923 31.5424 10.3327 30.6787 7.42029 29.1104C4.39495 27.4815 2.72882 25.2752 2.72882 22.8983C2.72882 22.6418 2.74994 22.3787 2.79157 22.1156C2.89709 19.4611 5.10231 15.6113 8.4215 12.2921C10.628 10.0857 13.0613 8.35622 15.2822 7.41405C14.7606 7.53511 14.2052 7.71726 13.6205 7.96157C11.3816 8.8971 8.92134 10.6397 6.69268 12.8683C3.37349 16.1876 1.16827 20.0375 1.06275 22.6919C1.02112 22.955 1 23.2181 1 23.4746C1 25.8515 2.66613 28.0578 5.69147 29.6867C8.60391 31.255 12.4635 32.1186 16.5593 32.1186C19.7877 32.1186 22.8689 31.5817 25.4556 30.5864C23.2695 31.2109 20.8242 31.5424 18.2881 31.5424Z" fill="#DD5900"/>
<path fill-rule="evenodd" clip-rule="evenodd" d="M28.0311 13.2755C28.692 14.4202 28.605 15.893 27.7956 17.4682C30.589 19.0747 32.1186 21.1919 32.1185 23.4746C32.1185 25.8515 30.4524 28.0578 27.427 29.6867C24.5146 31.255 20.655 32.1186 16.5592 32.1186C12.4635 32.1186 8.60391 31.255 5.69147 29.6867C2.66613 28.0578 1 25.8515 1 23.4746C1 23.2181 1.02112 22.955 1.06275 22.6918C1.16827 20.0374 3.37349 16.1875 6.69261 12.8683C8.92127 10.6398 11.3816 8.89716 13.6204 7.96163C16.0215 6.95837 17.9331 6.99509 19.0031 8.06509C19.8934 8.95547 20.0684 10.4237 19.5261 12.2732C21.0994 11.6611 22.6685 11.3465 24.0504 11.3748C25.9323 11.414 27.346 12.089 28.0311 13.2755ZM21.5359 16.8508C23.7182 18.028 25.014 19.7576 25.1846 21.7209C25.3551 23.6841 24.377 25.6112 22.4303 27.1473C20.5538 28.628 17.9813 29.5772 15.187 29.8198C14.7203 29.8604 14.2559 29.8805 13.7969 29.8805C11.5078 29.8805 9.34381 29.3817 7.59142 28.4363C5.40904 27.2591 4.11326 25.5295 3.94266 23.5662C3.77206 21.603 4.75029 19.6759 6.69692 18.1399C8.57343 16.6591 11.1459 15.71 13.9403 15.4672C16.7346 15.2245 19.4321 15.7158 21.5359 16.8508Z" fill="#DD5900"/>
<path d="M25.7797 8.77969C25.3023 8.77969 24.9153 9.16671 24.9153 9.6441C24.9153 10.1215 25.3023 10.5085 25.7797 10.5085C27.5274 10.5085 28.9492 11.9303 28.9492 13.678C28.9492 14.1554 29.3362 14.5424 29.8136 14.5424C30.291 14.5424 30.678 14.1554 30.678 13.678C30.678 10.9771 28.4806 8.77969 25.7797 8.77969Z" fill="#DD5900"/>
<path d="M25.2035 3.88137C24.9869 3.88137 24.7676 3.88854 24.5516 3.90275C23.9165 3.94452 23.4354 4.4933 23.4771 5.12848C23.5189 5.76359 24.0681 6.24437 24.7029 6.20293C24.8687 6.19204 25.0372 6.18646 25.2035 6.18646C29.3344 6.18646 32.695 9.54715 32.695 13.6779C32.695 14.183 32.6446 14.6876 32.5451 15.1775C32.4524 15.634 32.6574 16.121 33.0482 16.3744C33.446 16.6324 33.9853 16.6126 34.365 16.3296C34.59 16.1619 34.7484 15.9108 34.8042 15.636C34.9342 14.9954 35.0001 14.3367 35.0001 13.6779C35.0001 8.2762 30.6053 3.88137 25.2035 3.88137Z" fill="#DD5900"/>
<path fill-rule="evenodd" clip-rule="evenodd" d="M20.0354 21.7541C19.4041 19.1282 16.3466 17.6032 13.2196 18.3549C10.0927 19.1066 8.06245 21.8547 8.69364 24.4808C9.00455 25.7739 9.89931 26.8377 11.2133 27.476C12.029 27.8723 12.9466 28.0739 13.8931 28.0739C14.4272 28.0739 14.9703 28.0097 15.5094 27.8801C18.6364 27.1283 20.6667 24.3803 20.0354 21.7541ZM12.8136 26.3559C13.9275 26.3559 14.8305 25.4529 14.8305 24.3389C14.8305 23.225 13.9275 22.322 12.8136 22.322C11.6997 22.322 10.7966 23.225 10.7966 24.3389C10.7966 25.4529 11.6997 26.3559 12.8136 26.3559ZM17.7118 22.3221C17.7118 22.9586 17.1958 23.4746 16.5593 23.4746C15.9228 23.4746 15.4067 22.9586 15.4067 22.3221C15.4067 21.6855 15.9228 21.1695 16.5593 21.1695C17.1958 21.1695 17.7118 21.6855 17.7118 22.3221Z" fill="#DD5900"/>
</g>
<defs>
<clipPath id="clip0">
<rect width="34" height="34" fill="white" transform="translate(1 1)"/>
</clipPath>
</defs>
</svg>
